<svg xmlns="http://www.w3.org/2000/svg" direction="ltr" width="241.73368266058367" height="203.1132881182494" viewBox="437.56640625 314.05078125 241.73368266058367 203.1132881182494" stroke-linecap="round" stroke-linejoin="round" style="background-color: rgb(249, 250, 251);"><defs/><g transform="matrix(1, 0, 0, 1, 469.5664, 346.0508)" opacity="1"><path d="M47.2743,2.8238 L76.288,15.6151 Q82.6931,18.4389 76.4155,21.536 L47.3297,35.8854 Q41.0521,38.9824 34.717,36.0047 L7.3286,23.131 Q0.9935,20.1533 7.2733,17.0606 L34.1104,3.8436 Q40.3901,0.7508 46.7663,3.6394 L75.8201,16.8016 Q82.1963,19.6902 75.8751,22.6971 L48.0328,35.9411 Q41.7115,38.948 35.4095,35.9009 L6.8169,22.076 Q0.5149,19.0289 6.799,15.945 L34.4176,2.3912 Q40.7017,-0.6928 47.2743,2.8238 " stroke="#1d1d1d" stroke-width="3.5" fill="none"/></g><g transform="matrix(1, 0, 0, 1, 554.2901, 437.8727)" opacity="1"><path d="M-0.3558,-1.7765 T1.3609,-2.0323 4.6472,-2.5164 7.5922,-3.0599 10.4272,-3.8342 13.1503,-4.7679 15.471,-5.7645 17.5772,-6.8391 19.9654,-8.1504 22.4843,-9.7184 24.9631,-11.6177 27.3399,-13.7117 29.3508,-15.6904 31.4404,-17.815 33.6477,-19.9719 35.9601,-22.0956 38.334,-24.1115 40.4606,-25.7851 42.8543,-27.2229 45.4635,-28.326 47.9882,-29.0202 50.7828,-29.3772 53.657,-29.5444 56.3268,-29.7025 59.1673,-29.8657 62.0353,-30.0041 64.4064,-30.1932 66.5167,-30.484 68.5562,-30.8633 70.7233,-31.441 72.9826,-32.2349 75.0795,-33.1441 77.3688,-34.3326 79.7148,-35.8253 81.777,-37.5282 83.5905,-39.3669 85.4753,-41.4898 87.631,-43.9728 89.4528,-46.1898 91.0792,-48.2187 91.9889,-49.3146 A1.3188,1.3188 0 0 1 94.0311,-47.6454 T93.1381,-46.5358 91.4636,-44.5263 89.609,-42.3104 87.4928,-39.7098 85.5365,-37.4525 83.5411,-35.4345 81.2802,-33.4912 78.7436,-31.7231 76.2645,-30.3484 73.9848,-29.4063 71.455,-28.5141 69.0247,-27.8992 66.818,-27.6158 64.5692,-27.4494 62.1745,-27.3664 59.3411,-27.1977 56.479,-26.9897 53.8265,-26.8504 51.1271,-26.6642 48.6442,-26.374 46.4336,-25.8833 44.1619,-25.0078 41.9816,-23.7701 39.9047,-22.2484 37.6152,-20.3082 35.3694,-18.2215 33.2112,-16.0762 31.0966,-13.9216 29.0083,-11.863 26.5383,-9.5977 23.932,-7.4957 21.3035,-5.7177 18.8123,-4.3099 16.5383,-3.2477 14.0631,-2.2265 11.2207,-1.1694 8.228,-0.193 5.2475,0.5742 2.0386,1.3515 0.3558,1.7765 A1.8118,1.8118 0 0 1 -0.3558,-1.7765 Z" stroke-linecap="round" fill="#1d1d1d"/></g><g transform="matrix(1, 0, 0, 1, 554.5342, 431.2922)" opacity="1"><path d="M-0.6555,-1.6603 T1.22,-2.3115 4.5418,-3.4601 7.1844,-4.4129 9.626,-5.3944 11.896,-6.4373 13.7074,-7.5176 15.3084,-8.811 16.7516,-10.2492 18.2907,-12.2009 20.1746,-14.5547 21.8819,-16.2967 23.3792,-17.5279 25.3166,-18.8183 27.5044,-20.1202 29.5091,-21.2955 31.7338,-22.4871 34.096,-23.7168 36.3286,-24.8768 38.7937,-25.9031 41.344,-26.7382 43.99,-27.4224 46.7456,-28.0307 49.2715,-28.5923 51.8113,-29.1903 54.2983,-29.7871 56.5885,-30.2707 59.0956,-30.5798 61.8005,-30.7274 64.486,-30.9273 67.1684,-31.3155 69.6772,-31.8942 72.3111,-32.8238 75.0206,-34.1754 77.3843,-35.7975 79.6412,-37.6894 82.2408,-39.9933 83.6736,-41.2669 A1.2061,1.2061 0 0 1 85.2864,-39.4731 T83.8682,-38.1833 81.2473,-35.7932 78.8406,-33.7232 76.2219,-31.8635 73.2157,-30.2555 70.312,-29.1816 67.6092,-28.5517 64.7297,-28.0566 61.9764,-27.7777 59.4595,-27.6138 57.1423,-27.3524 54.9619,-26.9825 52.4792,-26.3906 49.8999,-25.7593 47.4156,-25.2087 44.7868,-24.5367 42.3106,-23.824 40.0279,-23.0486 37.8153,-22.0733 35.6547,-20.8981 33.3801,-19.5639 31.2864,-18.3295 29.3647,-17.1487 26.6812,-15.3004 23.7976,-13.0697 21.7966,-11.1478 20.3408,-9.5132 18.9248,-8.001 17.1736,-6.381 15.2027,-4.9168 13.1246,-3.7901 10.7412,-2.6867 8.2604,-1.6329 5.6795,-0.5626 2.47,0.8546 0.6555,1.6603 A1.785,1.785 0 0 1 -0.6555,-1.6603 Z" stroke-linecap="round" fill="#1d1d1d"/></g><g transform="matrix(1, 0, 0, 1, 555.8633, 422.6563)" opacity="1"><path d="M-0.7641,-1.6022 T0.2744,-2.0822 2.7305,-3.1715 5.5099,-4.37 8.4396,-5.6737 11.3065,-7.0678 13.7569,-8.4794 16.1825,-10.0165 18.4911,-11.5471 20.5941,-12.9172 22.5326,-14.0872 24.2229,-15.1124 26.1398,-16.1889 28.242,-17.2967 30.3351,-18.2639 32.487,-19.0443 34.5567,-19.6064 36.5996,-19.9446 39.3498,-20.1945 42.1186,-20.4251 44.2691,-20.6779 46.5398,-21.0028 49.0594,-21.5033 51.5509,-22.2389 53.6591,-23.0881 55.9164,-24.0519 58.4203,-25.1135 60.7337,-26.2072 63.1021,-27.4724 65.4596,-28.9017 67.6659,-30.4092 69.7935,-31.9593 71.864,-33.4275 74.0521,-34.8602 76.2905,-36.2249 78.7014,-37.5611 80.0097,-38.2588 A1.3647,1.3647 0 0 1 81.3503,-35.8812 T80.0762,-35.1229 77.7586,-33.793 75.5915,-32.4881 73.4611,-31.1186 71.4137,-29.733 69.2255,-28.1434 66.9369,-26.5532 64.4796,-24.9614 62.0125,-23.5456 59.6354,-22.3893 57.1493,-21.2258 54.8238,-20.1931 52.5213,-19.2815 49.7788,-18.3137 47.0777,-17.59 44.7172,-17.1859 42.3684,-16.8601 39.5752,-16.6937 36.2345,-16.4748 33.5299,-16.0024 31.6153,-15.3838 29.6694,-14.5458 27.6009,-13.4865 25.6704,-12.4898 23.9146,-11.6135 22.0111,-10.6316 19.9215,-9.3911 17.5867,-7.8452 15.1081,-6.209 12.5595,-4.6522 9.6887,-3.0794 6.8492,-1.6015 4.1843,-0.1668 1.7907,1.0973 0.7641,1.6022 A1.775,1.775 0 0 1 -0.7641,-1.6022 Z" stroke-linecap="round" fill="#1d1d1d"/></g><g transform="matrix(1, 0, 0, 1, 506.5857, 458.4427)" opacity="1"><path d="M 0 0 m -2.049234181790798, 0 a 2.049234181790798,2.049234181790798 0 1,1 4.098468363581596,0 a 2.049234181790798,2.049234181790798 0 1,1 -4.098468363581596,0" stroke-linecap="round" fill="#099268"/></g><g transform="matrix(1, 0, 0, 1, 548.5393, 466.6866)" opacity="1"><path d="M-1.9294,0.1659 T-1.992,-1.0518 -2.0943,-3.4314 -2.1572,-5.6947 -2.1266,-8.0087 -2.0548,-10.2575 -1.9846,-12.2719 -1.9062,-14.1977 -1.8193,-16.0815 -1.6859,-18.5099 -1.4503,-21.4062 -1.0611,-24.3009 -0.6681,-26.7762 -0.4048,-29.1375 -0.2771,-32.0742 -0.2202,-35.4011 -0.1973,-38.7744 -0.2156,-41.8422 -0.3585,-44.7594 -0.6052,-47.8289 -0.8006,-51.0006 -0.8942,-54.2017 -0.8796,-57.793 -0.8393,-60.6987 -0.813,-62.6963 -0.7935,-64.6678 -0.8232,-67.5475 -0.878,-70.5142 -0.9167,-72.5048 -0.8367,-74.8232 -0.6449,-77.3712 -0.3789,-79.8284 -0.1487,-82.0259 0.0456,-84.9412 0.1148,-87.939 -0.1365,-89.8861 -0.5335,-91.8244 -0.9908,-94.2346 -1.256,-97.0369 -1.2742,-98.4449 A1.9447,1.9447 0 0 1 2.6142,-98.3551 T2.5364,-97.1833 2.5657,-94.7746 2.8818,-92.4999 3.2979,-90.3281 3.5878,-87.9736 3.5107,-84.722 3.2542,-81.6876 3.0402,-79.5165 2.8668,-77.1991 2.8191,-74.794 2.8429,-72.589 2.8926,-70.6601 2.9998,-67.6404 3.0757,-64.6696 3.0971,-62.6997 3.1268,-60.7047 3.1807,-57.8141 3.2449,-54.2833 3.3176,-51.2505 3.4888,-48.2058 3.7386,-44.9501 3.8519,-41.8381 3.8249,-38.763 3.8185,-35.3579 3.7776,-31.9072 3.5769,-28.6981 3.1776,-25.45 2.6619,-22.3622 2.1954,-19.6217 1.8581,-16.6461 1.5995,-13.1239 1.4639,-10.1717 1.4268,-8.0069 1.4493,-5.8377 1.5628,-3.6816 1.7832,-1.3764 1.9294,-0.1659 A1.9365,1.9365 0 0 1 -1.9294,0.1659 Z" stroke-linecap="round" fill="#1d1d1d"/></g><g transform="matrix(1, 0, 0, 1, 470.7567, 466.171)" opacity="1"><path d="M-1.8357,0.091 T-1.8835,-0.9168 -1.9358,-3.1189 -1.8198,-5.9249 -1.5893,-8.9337 -1.3954,-11.5143 -1.228,-14.0756 -1.1134,-16.7316 -1.0815,-19.1752 -0.9543,-21.7057 -0.7308,-24.2147 -0.5744,-26.5583 -0.4948,-28.8862 -0.4672,-31.146 -0.4152,-33.67 -0.4122,-36.3118 -0.4858,-38.79 -0.5771,-41.283 -0.704,-43.5691 -0.866,-45.5822 -1.049,-47.7458 -1.1968,-50.0531 -1.2875,-53.1883 -1.071,-57.1123 -0.6196,-60.718 -0.2046,-64.425 0.0795,-68.2881 0.0221,-71.6477 -0.3941,-74.673 -0.8054,-77.1453 -1.059,-79.7987 -1.2384,-83.0345 -1.3709,-85.8532 -1.5283,-88.3137 -1.7505,-90.5814 -1.8161,-93.098 -1.4512,-95.4476 -0.9208,-97.3644 -0.3303,-99.8387 0.014,-101.3037 A2.3547,2.3547 0 0 1 4.566,-100.0963 T4.3216,-99.1934 3.8355,-97.3144 3.2195,-95.1813 2.6532,-92.9761 2.5326,-90.7825 2.6216,-88.5326 2.6807,-86.0382 2.7331,-83.1639 2.8235,-80.1499 3.1401,-76.9661 3.5719,-73.6184 3.7916,-70.9664 3.7806,-69.0111 3.6753,-67.0632 3.5176,-64.9776 3.2099,-62.0528 2.8162,-59.2972 2.355,-56.7012 2.0195,-53.2001 2.0087,-50.2445 2.1367,-47.9789 2.276,-45.7499 2.33,-43.7007 2.4076,-41.3908 2.4995,-38.8755 2.5702,-36.3552 2.6464,-33.6339 2.6411,-31.0749 2.5641,-28.7645 2.4519,-26.3309 2.2572,-23.9366 2.0288,-21.5601 1.9021,-19.1255 1.8514,-16.6495 1.8148,-13.9045 1.7053,-11.3132 1.5749,-8.8137 1.5856,-5.928 1.6816,-3.2512 1.7836,-1.0984 1.8357,-0.091 A1.8379,1.8379 0 0 1 -1.8357,0.091 Z" stroke-linecap="round" fill="#1d1d1d"/></g><g transform="matrix(1, 0, 0, 1, 471.1082, 467.6864)" opacity="1"><path d="M0.6128,-1.9275 T1.7271,-1.5267 3.7607,-0.8832 6.2647,-0.3841 9.7072,0.2722 12.5119,0.9914 14.4194,1.7088 16.927,2.7344 19.8953,4.0456 22.819,5.4365 25.8749,6.7708 28.8222,7.9148 31.3918,8.8993 33.6846,9.7906 35.7603,10.6138 37.927,11.3443 40.1981,11.994 42.4743,12.6749 44.6456,13.3002 46.762,14.0653 49.0842,14.8058 51.2732,14.9034 53.1871,14.3979 55.149,13.5125 57.3212,12.3628 59.7427,10.7496 62.1098,9.0519 64.0394,7.7038 65.8458,6.2958 67.6093,4.9099 69.2346,3.7145 70.8113,2.4981 72.3656,1.0854 74.0299,-0.5062 76.5201,-2.2542 78.1071,-3.1889 A2.3093,2.3093 0 0 1 80.5529,0.7289 T79.2632,1.5901 77.2659,3.0588 75.8065,4.3675 74.3087,5.692 72.7773,6.9177 71.2326,8.0826 69.4149,9.4067 67.5584,10.7551 65.7754,12.0474 63.8018,13.4857 61.7476,15.0068 59.5502,16.471 57.1919,17.7762 54.8447,18.866 52.2842,19.6018 49.8354,19.7972 47.74,19.4421 45.4039,18.6072 43.1596,17.7096 41.0335,16.9882 38.931,16.2891 37.005,15.6786 35.0864,14.9897 33.0679,14.1361 30.9488,13.1896 28.6936,12.1904 25.9568,11.0581 23.5298,10.1006 21.7955,9.3758 19.5911,8.3185 16.9053,6.9707 13.902,5.6294 10.5281,4.4568 7.2167,3.7054 4.6747,3.265 2.7044,2.8135 0.5287,2.2438 -0.6128,1.9275 A2.0226,2.0226 0 0 1 0.6128,-1.9275 Z" stroke-linecap="round" fill="#1d1d1d"/></g></svg>